<svg id="googleplay" xmlns="http://www.w3.org/2000/svg" xmlns:xlink="http://www.w3.org/1999/xlink" width="800.841" height="236.313" viewBox="0 0 800.841 236.313">
  <defs>
    <linearGradient id="linear-gradient" x1="2.472" y1="1.035" x2="2.361" y2="1.005" gradientUnits="objectBoundingBox">
      <stop offset="0" stop-color="#00a0ff"/>
      <stop offset="0.007" stop-color="#00a1ff"/>
      <stop offset="0.26" stop-color="#00beff"/>
      <stop offset="0.512" stop-color="#00d2ff"/>
      <stop offset="0.76" stop-color="#00dfff"/>
      <stop offset="1" stop-color="#00e3ff"/>
    </linearGradient>
    <linearGradient id="linear-gradient-2" x1="1.95" y1="1.879" x2="1.69" y2="1.879" gradientUnits="objectBoundingBox">
      <stop offset="0" stop-color="#ffe000"/>
      <stop offset="0.409" stop-color="#ffbd00"/>
      <stop offset="0.775" stop-color="orange"/>
      <stop offset="1" stop-color="#ff9c00"/>
    </linearGradient>
    <linearGradient id="linear-gradient-3" x1="1.926" y1="0.946" x2="1.835" y2="0.793" gradientUnits="objectBoundingBox">
      <stop offset="0" stop-color="#ff3a44"/>
      <stop offset="1" stop-color="#c31162"/>
    </linearGradient>
    <linearGradient id="linear-gradient-4" x1="1.856" y1="2.093" x2="1.897" y2="2.025" gradientUnits="objectBoundingBox">
      <stop offset="0" stop-color="#32a071"/>
      <stop offset="0.068" stop-color="#2da771"/>
      <stop offset="0.476" stop-color="#15cf74"/>
      <stop offset="0.801" stop-color="#06e775"/>
      <stop offset="1" stop-color="#00f076"/>
    </linearGradient>
  </defs>
  <path id="Path_1" data-name="Path 1" d="M771.169,236.313H29.672A29.687,29.687,0,0,1,0,206.774V29.539A29.649,29.649,0,0,1,29.672,0h741.5a29.659,29.659,0,0,1,29.672,29.539V206.774A29.7,29.7,0,0,1,771.169,236.313Z" fill-rule="evenodd"/>
  <path id="Path_2" data-name="Path 2" d="M771.169,4.729a24.943,24.943,0,0,1,24.942,24.81V206.774a24.9,24.9,0,0,1-24.942,24.81H29.672a24.943,24.943,0,0,1-24.942-24.81V29.539A24.9,24.9,0,0,1,29.672,4.729Zm0-4.729H29.672A29.687,29.687,0,0,0,0,29.539V206.774a29.649,29.649,0,0,0,29.672,29.539h741.5a29.659,29.659,0,0,0,29.672-29.539V29.539A29.7,29.7,0,0,0,771.169,0Z" fill="#a6a6a6" fill-rule="evenodd"/>
  <path id="Path_3" data-name="Path 3" d="M1832.463,309.5a17.98,17.98,0,0,1-13.422-5.554,18.915,18.915,0,0,1-5.422-13.554,18.5,18.5,0,0,1,5.422-13.539,17.925,17.925,0,0,1,13.407-5.554,18.166,18.166,0,0,1,13.422,5.554,19.617,19.617,0,0,1,0,27.079A17.829,17.829,0,0,1,1832.463,309.5Zm-159.128,0a18.643,18.643,0,0,1-13.48-5.481,19.094,19.094,0,0,1,13.48-32.707,18.786,18.786,0,0,1,7.528,1.562,15.226,15.226,0,0,1,5.731,4.1l.354.427-3.993,3.919-.412-.486c-2.254-2.681-5.274-3.993-9.267-3.993a12.808,12.808,0,0,0-9.237,3.772,14.321,14.321,0,0,0,0,19.624,13.505,13.505,0,0,0,18.725,0,10.2,10.2,0,0,0,2.711-6.144h-12.8v-5.51h18.3l.074.5a20.219,20.219,0,0,1,.265,2.77c0,5.083-1.532,9.193-4.567,12.228A17.825,17.825,0,0,1,1673.335,309.5Zm211.577-.781h-5.643l-17.281-27.653.147,4.98v22.659h-5.643V272.1h6.438l.177.28,16.25,26.047-.147-4.965V272.1h5.7Zm-94.849,0h-5.716V277.606h-9.915V272.1h25.532v5.51h-9.915v31.116Zm-20.287,0h-5.7V272.1h5.7Zm-32.044,0h-5.7V277.606h-9.915V272.1h25.532v5.51h-9.915Zm-19.226-.059h-21.863V272.1h21.863v5.51h-16.147v10.048h14.571V293.1h-14.571v10.048h16.147Zm104.72-8.5a12.616,12.616,0,0,0,9.237,3.831,12.3,12.3,0,0,0,9.237-3.831,14.517,14.517,0,0,0,.015-19.506,12.639,12.639,0,0,0-9.237-3.831,12.242,12.242,0,0,0-9.223,3.831,14.538,14.538,0,0,0-.03,19.506Z" transform="translate(-1410.577 -231.33)" fill="#fff"/>
  <path id="Path_4" data-name="Path 4" d="M1806.609,710.9c-13.922,0-25.208,10.563-25.208,25.134a25.208,25.208,0,0,0,50.415,0C1831.816,721.467,1820.531,710.9,1806.609,710.9Zm0,40.309c-7.617,0-14.173-6.306-14.173-15.234,0-9.061,6.571-15.234,14.173-15.234s14.173,6.173,14.173,15.234C1820.8,744.966,1814.226,751.212,1806.609,751.212Zm-55-40.309c-13.922,0-25.208,10.563-25.208,25.134a25.208,25.208,0,0,0,50.415,0C1776.819,721.467,1765.519,710.9,1751.612,710.9Zm0,40.309c-7.617,0-14.173-6.306-14.173-15.234,0-9.061,6.571-15.234,14.173-15.234s14.173,6.173,14.173,15.234C1765.784,744.966,1759.228,751.212,1751.612,751.212Zm-65.443-32.633v10.637H1711.7c-.781,5.967-2.755,10.372-5.775,13.392-3.742,3.742-9.517,7.808-19.7,7.808a28.363,28.363,0,0,1,0-56.721,27.256,27.256,0,0,1,19.226,7.617L1713,693.77a37.093,37.093,0,0,0-26.71-10.77c-21.525,0-39.587,17.532-39.587,39,0,21.524,18.048,39,39.587,39,11.624,0,20.346-3.8,27.241-10.961,7.027-7.027,9.252-16.943,9.252-24.942a32.887,32.887,0,0,0-.589-6.63h-36.036C1686.169,718.447,1686.169,718.579,1686.169,718.579Zm267.679,8.28c-2.107-5.643-8.471-16.014-21.525-16.014-12.935,0-23.69,10.18-23.69,25.134,0,14.114,10.637,25.134,24.943,25.134a24.947,24.947,0,0,0,20.935-11.153l-8.53-5.716c-2.829,4.2-6.762,6.954-12.346,6.954-5.643,0-9.591-2.563-12.213-7.617l33.605-13.922C1955.026,729.673,1953.848,726.859,1953.848,726.859Zm-34.268,8.4a13.8,13.8,0,0,1,13.127-14.644c4.405,0,8.073,2.166,9.326,5.318Zm-27.3,24.353h11.035V685.77H1892.28Zm-18.121-43.123h-.4a17.407,17.407,0,0,0-13.259-5.643c-12.538,0-24.088,11.035-24.088,25.208,0,14.114,11.491,25.016,24.088,25.016a17.36,17.36,0,0,0,13.259-5.716h.4v3.609c0,9.591-5.127,14.762-13.392,14.762-6.762,0-10.961-4.862-12.67-8.928l-9.591,4.007a23.99,23.99,0,0,0,22.246,14.836c12.935,0,23.9-7.617,23.9-26.195v-45.1h-10.431v4.14Zm-12.67,34.725c-7.617,0-13.981-6.365-13.981-15.16,0-8.869,6.365-15.293,13.981-15.293,7.543,0,13.392,6.5,13.392,15.293C1874.954,744.848,1869.046,751.212,1861.488,751.212Zm144.027-65.443h-26.386v73.84h11.035V731.647h15.366c12.214,0,24.221-8.854,24.221-22.909S2017.788,685.77,2005.515,685.77Zm.324,35.565h-15.69v-25.34h15.69a12.673,12.673,0,1,1,0,25.34Zm68.139-10.563c-8.015,0-16.28,3.551-19.7,11.285l9.783,4.066c2.107-4.066,5.967-5.451,10.048-5.451,5.716,0,11.491,3.418,11.624,9.517v.781a24.718,24.718,0,0,0-11.492-2.829c-10.563,0-21.274,5.775-21.274,16.6,0,9.915,8.663,16.28,18.313,16.28,7.41,0,11.491-3.344,14.04-7.219h.4v5.716h10.637V731.235C2096.357,718.064,2086.574,710.771,2073.978,710.771Zm-1.385,40.441c-3.61,0-8.663-1.768-8.663-6.306,0-5.716,6.305-7.882,11.683-7.882a19.153,19.153,0,0,1,10.048,2.49A13.283,13.283,0,0,1,2072.593,751.212Zm62.57-38.865-12.67,32.029h-.4l-13.127-32.029h-11.875l19.7,44.773L2105.565,782h11.492l30.305-69.656Zm-99.328,47.263h11.035V685.77h-11.035Z" transform="translate(-1404.096 -582.376)" fill="#fff" fill-rule="evenodd"/>
  <path id="Path_5" data-name="Path 5" d="M402.8,299.8c-1.709,1.842-2.7,4.656-2.7,8.339V438.771c0,3.683.987,6.5,2.755,8.265l.457.4L476.5,374.242v-1.635L403.253,299.4Z" transform="translate(-341.154 -255.29)" fill-rule="evenodd" fill="url(#linear-gradient)"/>
  <path id="Path_6" data-name="Path 6" d="M942.712,681.033,918.3,656.621v-1.709L942.712,630.5l.53.324,28.876,16.412c8.265,4.656,8.265,12.346,0,17.061l-28.876,16.412Z" transform="translate(-783.009 -537.61)" fill-rule="evenodd" fill="url(#linear-gradient-2)"/>
  <path id="Path_7" data-name="Path 7" d="M516.991,826.943,492.049,802,418.4,875.649c2.7,2.888,7.219,3.212,12.272.4l86.319-49.1" transform="translate(-356.758 -683.844)" fill-rule="evenodd" fill="url(#linear-gradient-3)"/>
  <path id="Path_8" data-name="Path 8" d="M516.991,337.488l-86.319-49.03c-5.053-2.888-9.591-2.49-12.272.4l73.649,73.575Z" transform="translate(-356.758 -244.274)" fill-rule="evenodd" fill="url(#linear-gradient-4)"/>
  <path id="Path_9" data-name="Path 9" d="M516.8,967.7l-85.73,48.706c-4.788,2.755-9.061,2.563-11.816.059l-.457.457.457.4c2.755,2.49,7.027,2.7,11.816-.059l86.319-49.031Z" transform="translate(-357.099 -825.132)" fill-rule="evenodd" opacity="0.2"/>
  <path id="Path_10" data-name="Path 10" d="M1112.98,809.676l-29.48,16.736.53.53,28.876-16.412c4.14-2.357,6.173-5.451,6.173-8.53C1118.829,804.829,1116.722,807.51,1112.98,809.676Z" transform="translate(-923.871 -683.844)" fill-rule="evenodd" opacity="0.12"/>
  <path id="Path_11" data-name="Path 11" d="M415.068,289.163l115.2,65.443c3.742,2.107,5.849,4.862,6.173,7.676,0-3.079-2.033-6.173-6.173-8.53l-115.2-65.443c-8.265-4.729-14.968-.781-14.968,8.663v.854C400.1,288.368,406.8,284.493,415.068,289.163Z" transform="translate(-341.154 -244.125)" fill="#fff" fill-rule="evenodd" opacity="0.25"/>
</svg>
