<svg xmlns="http://www.w3.org/2000/svg" width="406.401" height="103.946" viewBox="0 0 406.401 103.946">
  <g id="MY_TRUST_Logo_Mead_Johnson_V2" data-name="MY_TRUST Logo_Mead Johnson_V2" transform="translate(0.03 0.005)">
    <path id="Path_41" data-name="Path 41" d="M233.4,191.273a1.32,1.32,0,0,0,.379,1.558H229.72a2.221,2.221,0,0,0,1.165-1.558l4.632-17.31c.5-1.978.664-2.127,0-3.251a6.867,6.867,0,0,0-1.016-1.463h7.449l6.379,11.973,2.709-10.47a1.24,1.24,0,0,0-.379-1.5h4.063a2.275,2.275,0,0,0-1.233,1.5l-6.23,23.689s-9.847-18.745-9.725-18.962Z" transform="translate(-47.781 -90.501)" fill="#004990"/>
    <path id="Path_42" data-name="Path 42" d="M253.655,176.513c.284-1.056-.23-1.273-.677-1.449l6.772-.894s-2.316,8.614-2.8,10.592c-.786,2.953.555,3.345,1.571,3.345a2.925,2.925,0,0,0,2-1.056l2.79-10.538c.3-1.056-.2-1.273-.65-1.449l6.61-.894-3.3,12.6c-.515,1.9-.406,2.465.555,2.709l-5.567,2.072c-.772-.339-1-1.178-.772-2.3a8.126,8.126,0,0,1-4.984,2.194c-2.587,0-5.039-1.517-3.643-6.894Z" transform="translate(-40.184 -88.757)" fill="#004990"/>
    <path id="Path_43" data-name="Path 43" d="M272.4,178.377h-1.9l9.481-7.057-1.205,4.415h3.6l-.731,2.641h-3.589l-2.248,8.289c-.935,3.738,1.138,3.684,1.856,3.684a3.3,3.3,0,0,0,1.8-.894,5.418,5.418,0,0,1-4.876,3.034c-3.806,0-5.215-2.709-4.307-6Z" transform="translate(-33.495 -89.767)" fill="#004990"/>
    <path id="Path_44" data-name="Path 44" d="M294.174,178.377a3.346,3.346,0,0,0-2.289.786l-2.709,10.375a1.354,1.354,0,0,0,.393,1.558H282.39a2.37,2.37,0,0,0,1.233-1.558l3.413-13.016c.284-1.056-.217-1.273-.677-1.449l6.908-.894-.8,2.98c1.517-2.086,3.034-2.98,4.063-2.98a1.883,1.883,0,0,1,1.354.271l-1.8,6.664C296.083,179.447,295.244,178.377,294.174,178.377Z" transform="translate(-29.112 -88.765)" fill="#004990"/>
    <path id="Path_45" data-name="Path 45" d="M303.152,191.39a1.354,1.354,0,0,0,.393,1.558H296.42a2.452,2.452,0,0,0,1.26-1.558l3.4-13.016c.284-1.056-.271-1.273-.664-1.449l6.772-.894Zm-.528-19.436a4.063,4.063,0,0,1,3.467-3.034c1.449,0,2.289,1.354,1.842,3.034a3.914,3.914,0,0,1-3.467,3.02C302.976,174.974,302.136,173.62,302.623,171.954Z" transform="translate(-24.139 -90.618)" fill="#004990"/>
    <path id="Path_46" data-name="Path 46" d="M312.094,178.377h-1.91l9.4-7.057-1.165,4.415h3.562l-.718,2.641h-3.576l-2.181,8.289c-.962,3.738,1.165,3.684,1.842,3.684a2.709,2.709,0,0,0,1.8-.894,5.418,5.418,0,0,1-4.876,3.034c-3.82,0-5.147-2.709-4.266-6Z" transform="translate(-19.415 -89.767)" fill="#004990"/>
    <path id="Path_47" data-name="Path 47" d="M328.607,191.39a1.354,1.354,0,0,0,.393,1.558h-7.07a2.33,2.33,0,0,0,1.192-1.558l3.467-13.016a1.043,1.043,0,0,0-.677-1.449l6.772-.894Zm-.569-19.436a4.063,4.063,0,0,1,3.481-3.034c1.449,0,2.343,1.354,1.9,3.034a4.063,4.063,0,0,1-3.467,3.02c-1.463,0-2.357-1.354-1.91-3.02Z" transform="translate(-15.097 -90.618)" fill="#004990"/>
    <path id="Path_48" data-name="Path 48" d="M340.477,191.53c-6.23,0-6.772-4.93-5.878-8.343,1.273-4.93,5.093-8.966,10.348-8.966s7,3.643,5.7,8.614S345.217,191.53,340.477,191.53Zm4.741-8.8c.907-3.63.786-6.325-.989-6.271s-3.142,2.248-4.2,6.569c-1.178,4.632-.23,6.2.989,6.149,1.463-.068,2.926-1.476,4.2-6.515Z" transform="translate(-10.727 -88.739)" fill="#004990"/>
    <path id="Path_49" data-name="Path 49" d="M366.218,189.529a1.4,1.4,0,0,0,.339,1.558h-6.894a2.221,2.221,0,0,0,1.192-1.558l2.289-8.519c.23-1.016,1.056-3.359-1.233-3.359a3.508,3.508,0,0,0-2.33,1.178l-2.817,10.7a1.355,1.355,0,0,0,.325,1.558H350.1a2.451,2.451,0,0,0,1.232-1.558l3.413-13.016c.271-1.056,0-1.449-.461-1.612l6.5-.731-.555,2.059a8.357,8.357,0,0,1,5.269-2.059c2.831,0,4.239,1.964,3.291,5.485Z" transform="translate(-5.113 -88.757)" fill="#004990"/>
    <path id="Path_50" data-name="Path 50" d="M141.824,149.694,159.513,122.7h12.948a4.375,4.375,0,0,0-2.411,3.034L159.459,165.2a2.709,2.709,0,0,0,.786,3.02H147.12a4.388,4.388,0,0,0,2.316-3.02l8.777-32.75a9.289,9.289,0,0,1,.745-1.68l-1.192,1.842-24.448,36.543-4.862-35.73-.515-1.666s-.339,1.233-.447,1.734l-8.506,31.748a2.465,2.465,0,0,0,.935,3.02H112.27a4.632,4.632,0,0,0,2.452-3.02L125.3,125.775a2.709,2.709,0,0,0-1.111-3.034H137.5Z" transform="translate(-89.41 -107)" fill="#004990"/>
    <path id="Path_51" data-name="Path 51" d="M182.852,154.279c-2.018,5.418-11.025,11.134-19.369,11.134-8.059,0-13.382-6.379-10.632-16.565,2.343-8.8,10.361-16.348,19.463-16.348,7.449,0,12.5,4.266,9.481,15.332h-19.26c-.068.23-.176.569-.3,1.016-1.124,4.592,0,11.472,6.163,11.472a18.7,18.7,0,0,0,14.452-6.041Zm-11.811-18.1c-3.142,0-6.054,3.373-7.4,7.8h10.118C175.078,139.218,173.629,136.184,171.042,136.184Z" transform="translate(-75.285 -103.527)" fill="#004990"/>
    <path id="Path_52" data-name="Path 52" d="M183.307,134.965a30.381,30.381,0,0,1,12.1-2.465c3.576,0,10.741.786,8.127,10.836-.393,1.517-4.212,15.793-4.321,16.253-.5,1.91-.84,2.641.908,3.183l-8.7,2.8a3.427,3.427,0,0,1-1.5-4.145,18.082,18.082,0,0,1-10.2,4.063c-5.54,0-6.772-4.917-5.878-8.492a12.19,12.19,0,0,1,6.379-7.449c3.806-2.194,10.429-3.034,13-4.768a4.442,4.442,0,0,0,1.68-3.075c.84-3.075-.108-5.418-2.9-5.418-4.835,0-9.251,4.93-11.377,8.411Zm-.5,20.493c-.894,3.251.664,4.592,2.926,4.592a7.5,7.5,0,0,0,4.51-1.734l2.709-9.969c-1.856.786-3.034,1-5.228,1.964a7.992,7.992,0,0,0-4.917,5.147Z" transform="translate(-67.681 -103.527)" fill="#004990"/>
    <path id="Path_53" data-name="Path 53" d="M235.711,122.05,225.16,159.433c-.271,1.8-.433,2.181.339,3.373l-12.19,7.273,1.354-4.185a17.363,17.363,0,0,1-9.129,3.224c-6.542,0-10.714-6.149-8-16.253,2.465-9.088,11.255-16.633,19.49-16.633a7.057,7.057,0,0,1,5.025,1.571l3.088-10.036c.623-2.113-.569-2.452-1.5-2.709ZM211.9,163.862a6.244,6.244,0,0,0,3.4-1.124l5.607-20.872a2.871,2.871,0,0,0-2.912-1.747c-5.242,0-9.224,6.325-10.619,11.54C204.681,161.789,209.435,163.862,211.9,163.862Z" transform="translate(-59.487 -107.231)" fill="#004990"/>
    <path id="Path_54" data-name="Path 54" d="M225.425,169.781l8.966-32.872a2.506,2.506,0,0,0-.962-3.02l12.19-3.088s-.2,1.016-.623,2.587l-8.777,33.252c-6.393,25.883-21.739,25.369-29.5,23.689a28.619,28.619,0,0,0,18.7-20.547Z" transform="translate(-55.933 -104.129)" fill="#004990"/>
    <path id="Path_55" data-name="Path 55" d="M252.478,141.26c10.131,0,13.45,7.463,11.025,16.4-2.587,9.359-10.578,16.524-19.829,16.524-11.675,0-13.1-9.291-11.12-16.064C234.952,149.156,242.455,141.26,252.478,141.26Zm-1.354,3.589c-4,.163-7.463,5.269-9.413,13.111-2,8.343-.217,12.542,3.129,12.42,3.874-.108,7.233-3.969,9.359-12.935,1.747-7.057,1.192-12.718-3.169-12.6Z" transform="translate(-47.039 -100.422)" fill="#004990"/>
    <path id="Path_56" data-name="Path 56" d="M289.831,154.941l-5.16,19.355a2.316,2.316,0,0,0,.853,2.858H273.1a4.348,4.348,0,0,0,2.343-2.858l4.659-17.3c.894-3.373.555-6.5-3.318-6.5a9.034,9.034,0,0,0-5.878,2.709L265.357,174.3a2.33,2.33,0,0,0,.84,2.858H253.6A4.375,4.375,0,0,0,256,174.3l10.2-37.41c.569-2.059-.5-2.465-1.463-2.8l11.594-2.953-4.253,17.96c1.571-1.354,6.271-4.2,10.47-4.2C288.775,144.85,291.673,148.1,289.831,154.941Z" transform="translate(-39.316 -104.012)" fill="#004990"/>
    <path id="Path_57" data-name="Path 57" d="M330.655,142.55l-2.519,10.375c-.271-3.481-1.354-8.194-4.862-8.194-3.183,0-4.714,1.693-5.147,3.318-.609,2.289,1.463,3.454,3.792,4.984,3.481,2.4,7.233,5.039,5.607,11.079-2.018,7.341-10.362,10.077-14.9,10.077a14.9,14.9,0,0,1-9.007-2.709l2.709-10.7c-.352,4.822,1.558,9.481,5.594,9.481a6.027,6.027,0,0,0,6.054-3.969c.65-2.533-.894-3.156-4.768-6.068-4.361-3.251-5.039-5.932-3.968-9.793,1.178-4.415,5.526-9.183,14.059-9.183A24.813,24.813,0,0,1,330.655,142.55Z" transform="translate(-21.587 -100.425)" fill="#004990"/>
    <path id="Path_58" data-name="Path 58" d="M344.279,141.26c10.2,0,13.544,7.463,11.106,16.4-2.587,9.359-10.605,16.524-19.829,16.524-11.7,0-13.111-9.291-11.2-16.064C326.752,149.156,334.324,141.26,344.279,141.26Zm-1.287,3.589c-4.063.163-7.49,5.269-9.481,13.111-2.059,8.343-.284,12.542,3.129,12.42,3.86-.108,7.179-3.969,9.359-12.935,1.747-7.057,1.26-12.718-3.007-12.6Z" transform="translate(-14.488 -100.422)" fill="#004990"/>
    <path id="Path_59" data-name="Path 59" d="M381.162,151.648,375.975,171a2.343,2.343,0,0,0,.908,2.858H364.543A4.063,4.063,0,0,0,366.982,171l4.47-16.687c.677-2.628,1.788-7-3.251-7a9.223,9.223,0,0,0-5.594,2.628L357.013,171a2.465,2.465,0,0,0,.894,2.858H345.5A4.307,4.307,0,0,0,347.9,171l6.772-24.692c.569-2.14-.095-2.709-1.111-3.034l11.3-2.858-1.043,5.418a17.933,17.933,0,0,1,10.632-4.2C379.754,141.558,382.964,145.147,381.162,151.648Z" transform="translate(-6.743 -100.72)" fill="#004990"/>
    <path id="Path_60" data-name="Path 60" d="M314.13,151.648,309.01,171a2.248,2.248,0,0,0,.84,2.858H297.525a3.982,3.982,0,0,0,2.4-2.858l4.483-16.687c.677-2.628,1.8-7-3.237-7a9.224,9.224,0,0,0-5.607,2.628L289.953,171a2.357,2.357,0,0,0,.84,2.858H278.4A4.253,4.253,0,0,0,280.811,171l6.772-24.691c.569-2.14-.163-2.709-1.124-3.034l11.323-2.858-1.07,5.418a18,18,0,0,1,10.646-4.2C312.681,141.558,315.864,145.147,314.13,151.648Z" transform="translate(-30.526 -100.72)" fill="#004990"/>
    <path id="Path_61" data-name="Path 61" d="M139.714,198.808c49.315,0,88.513-22.565,107.1-36.109-17.513,9.291-59.907,25.193-99.159,25.193-22.511,0-40.633-10.077-40.633-22.565,0-5.039,2.966-9.63,7.951-13.436-11.824,4.646-19.6,12.434-19.6,21.332C95.411,187.336,115.565,198.808,139.714,198.808Z" transform="translate(-95.4 -96.654)" fill="#febc11"/>
    <path id="Path_62" data-name="Path 62" d="M383.334,123.9c27.089,3.318,44.7,13.544,44.7,27.279a15.428,15.428,0,0,1-1.5,6.6c8-4.917,12.759-11.025,12.759-17.689,0-15.9-23.567-27.671-61.018-28.89S289.24,121.5,240.02,144.512C253,138.458,325.878,116.841,383.334,123.9Z" transform="translate(-44.13 -111.11)" fill="#ed1b2f"/>
    <path id="Path_63" data-name="Path 63" d="M391.166,143.234h-1.68v4.7h-1.029v-4.7H386.71v-.894h4.456Zm4.253,3.075,1.517-3.969h1.571v5.594h-1.016v-4.375h0l-1.612,4.375h-.786l-1.68-4.375h0v4.375H392.4V142.34h1.476Z" transform="translate(7.864 -100.039)" fill="#004990"/>
  </g>
</svg>
