<svg xmlns="http://www.w3.org/2000/svg" xmlns:xlink="http://www.w3.org/1999/xlink" width="406.082" height="248.453" viewBox="0 0 406.082 248.453">
  <defs>
    <linearGradient id="linear-gradient" x1="0.577" y1="1.048" x2="0.423" y2="0.006" gradientUnits="objectBoundingBox">
      <stop offset="0" stop-color="#007ac9"/>
      <stop offset="1" stop-color="#00257a"/>
    </linearGradient>
    <linearGradient id="linear-gradient-2" x1="0.599" y1="0.991" x2="0.402" y2="0.007" xlink:href="#linear-gradient"/>
    <linearGradient id="linear-gradient-3" x1="0.952" y1="0.988" x2="0.338" y2="0.009" xlink:href="#linear-gradient"/>
    <linearGradient id="linear-gradient-4" x1="0.619" y1="0.991" x2="0.323" y2="0" xlink:href="#linear-gradient"/>
    <linearGradient id="linear-gradient-5" x1="0.596" y1="0.997" x2="0.39" y2="0.024" xlink:href="#linear-gradient"/>
    <linearGradient id="linear-gradient-6" x1="0.655" y1="0.983" x2="0.443" y2="-0.032" xlink:href="#linear-gradient"/>
    <linearGradient id="linear-gradient-7" x1="0.615" y1="0.989" x2="0.307" y2="0.016" xlink:href="#linear-gradient"/>
    <linearGradient id="linear-gradient-8" x1="0.727" y1="0.979" x2="0.416" y2="0.005" xlink:href="#linear-gradient"/>
    <linearGradient id="linear-gradient-9" x1="0.542" y1="1.036" x2="0.342" y2="0.009" xlink:href="#linear-gradient"/>
    <linearGradient id="linear-gradient-10" x1="0.689" y1="0.96" x2="0.463" y2="-0.024" xlink:href="#linear-gradient"/>
    <linearGradient id="linear-gradient-12" x1="0" y1="0.5" x2="1" y2="0.5" xlink:href="#linear-gradient"/>
    <linearGradient id="linear-gradient-13" x1="-0.003" y1="0.501" x2="0.998" y2="0.501" xlink:href="#linear-gradient"/>
    <linearGradient id="linear-gradient-14" x1="-0.002" y1="0.5" x2="0.998" y2="0.5" xlink:href="#linear-gradient"/>
    <linearGradient id="linear-gradient-15" x1="0.003" y1="0.5" x2="1.002" y2="0.5" xlink:href="#linear-gradient"/>
  </defs>
  <g id="Group_2" data-name="Group 2" transform="translate(-367 -128)">
    <g id="Logo-Golden_Start_Club" data-name="Logo-Golden Start Club" transform="translate(367 128)">
      <path id="Path_1" data-name="Path 1" d="M217.016,292.364h8.256v23.691a11.532,11.532,0,0,1-2.438.731,16.258,16.258,0,0,1-3,.254,26.245,26.245,0,0,1-3.5-.254,12.741,12.741,0,0,1-3.825-1.2,13.479,13.479,0,0,1-3.728-2.775,16.749,16.749,0,0,1-3.191-5.018,35.439,35.439,0,0,1-2.225-7.863,65.454,65.454,0,0,1-.842-11.411,55.227,55.227,0,0,1,.957-10.8,43.862,43.862,0,0,1,2.535-8.515,28.745,28.745,0,0,1,3.612-6.355,26.1,26.1,0,0,1,4.163-4.366,15.78,15.78,0,0,1,4.163-2.507,10.407,10.407,0,0,1,3.7-.8,4.533,4.533,0,0,1,3.353,1.152,7.164,7.164,0,0,1,1.716,2.84,18.5,18.5,0,0,1,.8,3.7,22.564,22.564,0,0,0,.726,3.7,7.746,7.746,0,0,0,1.457,2.84,3.662,3.662,0,0,0,2.979,1.147,5.958,5.958,0,0,0,2.979-.726,6.683,6.683,0,0,0,2.132-1.878,9.075,9.075,0,0,0,1.734-5.18,8.553,8.553,0,0,0-1.494-4.94,12.178,12.178,0,0,0-4.107-3.659,21.739,21.739,0,0,0-6.119-2.248,35.212,35.212,0,0,0-7.6-.777,34.188,34.188,0,0,0-8.514,1.077,33.354,33.354,0,0,0-7.975,3.192,33.011,33.011,0,0,0-6.994,5.254,32.5,32.5,0,0,0-5.55,7.294,37.612,37.612,0,0,0-3.663,9.292,45.4,45.4,0,0,0-1.314,11.258,42.713,42.713,0,0,0,2.391,15.106,28.422,28.422,0,0,0,6.536,10.412,25.9,25.9,0,0,0,9.713,6.013,36.164,36.164,0,0,0,11.966,1.943,43.408,43.408,0,0,0,4.477-.208,38.614,38.614,0,0,0,3.964-.634v2.863c0,6.878-2.118,10.726-8.6,13.636-12.354,5.55-26.864,4.019-39.639-.463a125.571,125.571,0,0,1-25.291-12.664q-5.9-3.726-11.563-7.794h0a3.7,3.7,0,0,1-.12-5.879l1.323-.786,1.873-1.142h0c1.267-.786,2.562-1.623,3.881-2.5s2.632-1.781,3.969-2.729c.661-.462,1.332-.953,2-1.452s1.267-.925,1.892-1.429c.412-.31.828-.624,1.24-.962.49-.375.971-.759,1.448-1.152l.3-.241,1.517-1.267c1.2-1.008,2.391-2.058,3.557-3.136,17.322-15.379,26.7-35.967,26.7-56.124a63.033,63.033,0,0,0-.828-10.273A41.288,41.288,0,0,0,147.9,191.43h0a41.323,41.323,0,0,0-40.948,35.856,31.046,31.046,0,0,0-14.695-3.677h0c-.856,0-1.711.037-2.544.1v-.037h-.079l-.634.06c-.546.037-1.1.1-1.633.18a30.771,30.771,0,0,0-3.7.759l-.116.028c-.287.088-.578.166-.874.264a30.6,30.6,0,0,0-9.154,4.625,30.957,30.957,0,0,0-7.072,7.271.144.144,0,0,1-.042.056c-.463.648-.865,1.318-1.267,2a30.809,30.809,0,0,0-4.121,13.83v-1.3h0a1.253,1.253,0,0,1,0-.134v-.12h0v.328c0,.375-.032.865-.046,1.216h0v.393h0v2.1a28.257,28.257,0,0,0,.25,3.612c.037.347.088.68.134,1.018v.092a1.248,1.248,0,0,1,0,.13c.051.314.1.624.148.925v.079c.037.194.065.375.106.555h0c.083.463.18.957.3,1.429s.18.828.3,1.24c.042.18.088.365.143.546.139.509.282,1.013.435,1.512s.305.967.463,1.448a5.571,5.571,0,0,0,.241.661q.375,1.055.8,2.077c.167.393.328.777.5,1.161.134.3.278.6.426.9.287.624.592,1.249.925,1.85.259.509.537,1.008.828,1.508s.574,1.018.883,1.517c.606,1.008,1.249,2.007,1.929,2.979q.347.523.722,1.027c.537.759,1.1,1.508,1.66,2.239l.782.971c1.388,1.7,2.812,3.344,4.32,4.926.356.379.712.74,1.078,1.106.213.222.435.462.652.666a120.858,120.858,0,0,0,18.344,14.764c.241.166.463.319.708.463q.9.587,1.776,1.152l.513.324c.412.264.823.527,1.235.782l.583.356c.384.241.768.463,1.147.7l.55.328,1.161.694.463.273,1.216.7.365.208c.435.25.865.49,1.29.726l.25.143,1.364.749.125.069,1.443.777c4.056,2.646,8.159,5.2,12.364,7.623a203.3,203.3,0,0,0,36.226,16.8c16.115,5.439,33.3,8.219,50.208,6.568,6.045-.592,12.169-1.79,17.4-4.884,7.521-4.454,10.925-12.391,10.925-20.9V292.364h6.841V288.2H217.016ZM61.077,251.421Z" transform="translate(-60.98 -191.43)" fill="url(#linear-gradient)"/>
      <path id="Path_2" data-name="Path 2" d="M507.042,372.7a18.812,18.812,0,0,0-6.9-4.362,23.924,23.924,0,0,0-8.256-1.434,22.392,22.392,0,0,0-8.256,1.55,19.283,19.283,0,0,0-6.938,4.625,22.766,22.766,0,0,0-4.764,7.715,33.5,33.5,0,0,0,0,21.554,22.717,22.717,0,0,0,4.764,7.738,19.538,19.538,0,0,0,6.938,4.672,22.129,22.129,0,0,0,8.256,1.568,21,21,0,0,0,8.256-1.665,19.746,19.746,0,0,0,6.938-4.9,24.2,24.2,0,0,0,4.759-7.974,30.769,30.769,0,0,0,1.785-10.883,29.16,29.16,0,0,0-1.785-10.717A21.434,21.434,0,0,0,507.042,372.7Zm-8.284,25.8a36.654,36.654,0,0,1-1.008,6.568,12.544,12.544,0,0,1-2.16,4.69,4.5,4.5,0,0,1-3.7,1.786,4.552,4.552,0,0,1-3.7-1.711,11.841,11.841,0,0,1-2.16-4.528,33.564,33.564,0,0,1-.985-6.4q-.236-3.594-.236-7.345t.236-7.317a32.988,32.988,0,0,1,.985-6.355,11.827,11.827,0,0,1,2.16-4.5,4.552,4.552,0,0,1,3.7-1.711,4.663,4.663,0,0,1,3.7,1.619,11,11,0,0,1,2.16,4.339,32.452,32.452,0,0,1,1.008,6.216q.259,3.5.259,7.248T498.758,398.5Z" transform="translate(-280.895 -285.739)" fill="url(#linear-gradient-2)"/>
      <path id="Path_3" data-name="Path 3" d="M589.147,317.155a6.1,6.1,0,0,0-2.484-2.017,11.119,11.119,0,0,0-4.741-.819,16.193,16.193,0,0,0-3.751.421,21.4,21.4,0,0,0-3.353,1.078,17.376,17.376,0,0,0-2.886,1.526,27.423,27.423,0,0,0-2.391,1.758l.925,1.124a6.013,6.013,0,0,1,1.244-.772,3.434,3.434,0,0,1,1.387-.259,2.313,2.313,0,0,1,2.137,1.008,4.395,4.395,0,0,1,.634,2.373v60.513a7.658,7.658,0,0,0,.162,1.36,3.593,3.593,0,0,0,.846,1.642,5.465,5.465,0,0,0,2.086,1.388,10.471,10.471,0,0,0,3.895.583,11.965,11.965,0,0,0,3.964-.537,6.379,6.379,0,0,0,2.253-1.29,3.413,3.413,0,0,0,.985-1.6,6.2,6.2,0,0,0,.208-1.452V322.058a19.325,19.325,0,0,0-.162-2.368A5.823,5.823,0,0,0,589.147,317.155Z" transform="translate(-334.313 -257.479)" fill="url(#linear-gradient-3)"/>
      <path id="Path_4" data-name="Path 4" d="M669.75,325.906a25.337,25.337,0,0,0-8.788-8.562,24.01,24.01,0,0,0-12.2-3.025,18.124,18.124,0,0,0-4.246.513,22.106,22.106,0,0,0-4.057,1.388,17.9,17.9,0,0,0-3.543,2.16,15.6,15.6,0,0,0-2.743,2.72l1.217,1.642c.222-.185.573-.462,1.059-.865a13.084,13.084,0,0,1,1.85-1.221,13.643,13.643,0,0,1,2.65-1.105,11.651,11.651,0,0,1,3.4-.463,11.777,11.777,0,0,1,6.12,1.688,17.728,17.728,0,0,1,5.088,4.625,29.421,29.421,0,0,1,3.825,7.017,48.806,48.806,0,0,1,2.5,8.779c-.375-.282-.8-.569-1.267-.87a10.052,10.052,0,0,0-1.642-.819,12.951,12.951,0,0,0-2.206-.634,14.448,14.448,0,0,0-2.858-.259,18.885,18.885,0,0,0-7.835,1.665,19.229,19.229,0,0,0-6.522,4.833,23.619,23.619,0,0,0-4.5,7.766,34.857,34.857,0,0,0,.259,22.068,21.835,21.835,0,0,0,4.949,7.623,18.265,18.265,0,0,0,6.772,4.218,22.331,22.331,0,0,0,7.34,1.291,21.276,21.276,0,0,0,9.357-2.012,18.746,18.746,0,0,0,7.063-5.957,29.193,29.193,0,0,0,4.5-9.829,52.684,52.684,0,0,0,1.573-13.6,78.588,78.588,0,0,0-1.781-17.405A42.277,42.277,0,0,0,669.75,325.906Zm-7.317,35.934q0,21.439-7.507,21.439a3.978,3.978,0,0,1-3.076-1.457,11.007,11.007,0,0,1-2.109-4.08,33.8,33.8,0,0,1-1.221-6.286,75.393,75.393,0,0,1-.4-8.071q0-10.032,1.711-14.8t5.393-4.81a5.37,5.37,0,0,1,3.538,1.147,16.54,16.54,0,0,1,2.512,2.6,28.524,28.524,0,0,1,.749,4.269c.157,1.536.264,2.979.328,4.339s.1,2.567.1,3.612Z" transform="translate(-368.631 -257.479)" fill="url(#linear-gradient-4)"/>
      <path id="Path_5" data-name="Path 5" d="M777.986,406.961a17.537,17.537,0,0,1-2.345,1.526,12.233,12.233,0,0,1-2.627,1.031,11.851,11.851,0,0,1-3.053.375,12.028,12.028,0,0,1-4.316-.749,13.679,13.679,0,0,1-3.589-2.021,16.055,16.055,0,0,1-2.858-2.882,18.773,18.773,0,0,1-2.091-3.4,19.873,19.873,0,0,1-1.291-3.538,13.423,13.423,0,0,1-.462-3.261l18.571-10.907a11.726,11.726,0,0,0,3.381-3.076,6.629,6.629,0,0,0,1.267-3.964,7.613,7.613,0,0,0-.847-3.492,8.354,8.354,0,0,0-2.558-2.932,13.452,13.452,0,0,0-4.292-2.017,21.627,21.627,0,0,0-6.05-.754,22.2,22.2,0,0,0-5.467.726,25.64,25.64,0,0,0-5.55,2.16,26.774,26.774,0,0,0-5.185,3.589,23.931,23.931,0,0,0-4.316,5.019,25.13,25.13,0,0,0-2.928,6.429,29.708,29.708,0,0,0,.726,18.154,21.776,21.776,0,0,0,4.806,7.364,19.76,19.76,0,0,0,6.873,4.436,22.119,22.119,0,0,0,7.951,1.475,24.2,24.2,0,0,0,7.276-1.008,23.417,23.417,0,0,0,5.578-2.535,22.413,22.413,0,0,0,4.084-3.261,32.954,32.954,0,0,0,2.775-3.187l-1.17-1.129Q779.109,406.091,777.986,406.961Zm-23.025-19.986c.028-1.267.125-2.586.282-3.964a40.12,40.12,0,0,1,.68-4.1,16.354,16.354,0,0,1,1.216-3.636,7.831,7.831,0,0,1,1.97-2.6A4.348,4.348,0,0,1,762,371.66a3.265,3.265,0,0,1,2.253.842,6.754,6.754,0,0,1,1.55,2.114,10.558,10.558,0,0,1,.865,2.7,14.432,14.432,0,0,1,.259,2.6,11.521,11.521,0,0,1-.116,1.8,4.683,4.683,0,0,1-.352,1.221,2.681,2.681,0,0,1-.633.846,8.111,8.111,0,0,1-1.009.726l-9.9,5.675Q754.9,388.88,754.961,386.975Z" transform="translate(-426.089 -285.735)" fill="url(#linear-gradient-5)"/>
      <path id="Path_6" data-name="Path 6" d="M874.71,372.149a10.075,10.075,0,0,0-4.163-4.08,12.574,12.574,0,0,0-5.615-1.221,10.8,10.8,0,0,0-2.84.375,13.9,13.9,0,0,0-2.627,1.008,18.136,18.136,0,0,0-2.345,1.434,19.15,19.15,0,0,0-1.994,1.642,25.58,25.58,0,0,0-3.941,4.454,24.187,24.187,0,0,0-.167-2.553,7.484,7.484,0,0,0-.962-2.933,6.754,6.754,0,0,0-2.484-2.419,9.326,9.326,0,0,0-4.737-1.008,16.224,16.224,0,0,0-3.756.426,20.213,20.213,0,0,0-3.33,1.078,18.965,18.965,0,0,0-2.886,1.522,25.931,25.931,0,0,0-2.414,1.762l.985,1.17a7.427,7.427,0,0,1,1.221-.8,2.982,2.982,0,0,1,1.36-.282,2.312,2.312,0,0,1,2.132,1.008,4.375,4.375,0,0,1,.634,2.368v36.216a6.581,6.581,0,0,0,.189,1.36,3.484,3.484,0,0,0,.925,1.642,6.187,6.187,0,0,0,2.179,1.388,10.639,10.639,0,0,0,3.917.583,11.565,11.565,0,0,0,3.918-.537,5.67,5.67,0,0,0,2.155-1.314,3.477,3.477,0,0,0,.925-1.642,7.233,7.233,0,0,0,.19-1.48V379.984a11.232,11.232,0,0,0,.925-1.388,14.3,14.3,0,0,1,1.314-1.878,9.037,9.037,0,0,1,1.85-1.665,4.164,4.164,0,0,1,2.419-.726,4.543,4.543,0,0,1,2.2.588,5.19,5.19,0,0,1,1.97,2.438,19.817,19.817,0,0,1,1.429,5.4,65.37,65.37,0,0,1,.541,9.449q0,5.726-.259,10.019a68.642,68.642,0,0,1-.8,7.433,31.742,31.742,0,0,1-1.29,5.231,13.943,13.943,0,0,1-1.735,3.451,7.37,7.37,0,0,1-2.183,2.063,9.248,9.248,0,0,1-2.6,1.031l.518,1.924a22.968,22.968,0,0,0,4.01-.541,20.46,20.46,0,0,0,4.857-1.758,23.178,23.178,0,0,0,5.019-3.5,22.208,22.208,0,0,0,4.408-5.772,33.89,33.89,0,0,0,3.182-8.529,50.487,50.487,0,0,0,1.226-11.823,64.687,64.687,0,0,0-.893-11.707A23.6,23.6,0,0,0,874.71,372.149Z" transform="translate(-474.543 -285.71)" fill="url(#linear-gradient-6)"/>
      <path id="Path_7" data-name="Path 7" d="M523.954,542.585a47.166,47.166,0,0,0-4.371-5.777q-2.456-2.775-5-5.426t-5-5.236a55.592,55.592,0,0,1-4.371-5.19,27.408,27.408,0,0,1-3.09-5.259,13.515,13.515,0,0,1-1.165-5.477,13,13,0,0,1,.606-4.209,8.617,8.617,0,0,1,1.614-2.923,6.664,6.664,0,0,1,2.243-1.707,6.013,6.013,0,0,1,2.5-.56,5.3,5.3,0,0,1,3.557,1.05,6.585,6.585,0,0,1,1.822,2.6,15.34,15.34,0,0,1,.888,3.39,34.265,34.265,0,0,0,.68,3.39,6.937,6.937,0,0,0,1.217,2.595,3.006,3.006,0,0,0,2.548,1.05,4.788,4.788,0,0,0,2.526-.652,5.971,5.971,0,0,0,1.776-1.637,6.816,6.816,0,0,0,1.027-2.174,8.792,8.792,0,0,0,.328-2.313,8.944,8.944,0,0,0-1.217-4.51,11.03,11.03,0,0,0-3.575-3.7,19.471,19.471,0,0,0-5.754-2.479,29.763,29.763,0,0,0-7.738-.925,22.016,22.016,0,0,0-7.646,1.309,19.066,19.066,0,0,0-6.267,3.7,17.39,17.39,0,0,0-4.255,5.842,18.345,18.345,0,0,0-1.568,7.7,18.154,18.154,0,0,0,1.937,8.157,42.769,42.769,0,0,0,4.885,7.611q2.923,3.668,6.314,7.2t6.314,7.109a43.513,43.513,0,0,1,4.861,7.271,16.189,16.189,0,0,1,1.943,7.622,18.74,18.74,0,0,1-.888,6.175,11.881,11.881,0,0,1-2.313,4.093,8.279,8.279,0,0,1-3.238,2.243,10.524,10.524,0,0,1-3.7.68,9.388,9.388,0,0,1-3.881-.7,7.011,7.011,0,0,1-2.525-1.85A9.044,9.044,0,0,1,494.426,568a25.908,25.908,0,0,1-.925-3.039q-.375-1.54-.7-3.039a14,14,0,0,0-.842-2.664,4.857,4.857,0,0,0-1.388-1.85,3.492,3.492,0,0,0-2.267-.7,4.046,4.046,0,0,0-2.387.726,6.328,6.328,0,0,0-1.707,1.8,8.814,8.814,0,0,0-1.031,2.364,9.294,9.294,0,0,0-.347,2.41,11.142,11.142,0,0,0,1.286,5.167,13.457,13.457,0,0,0,3.811,4.468,20.143,20.143,0,0,0,6.166,3.118,27.293,27.293,0,0,0,8.441,1.193,32.453,32.453,0,0,0,9.977-1.5,24.679,24.679,0,0,0,8.145-4.315,20.541,20.541,0,0,0,5.523-6.966,21.115,21.115,0,0,0,2.03-9.426,20.354,20.354,0,0,0-1.166-6.873A30.814,30.814,0,0,0,523.954,542.585Z" transform="translate(-287.71 -355.397)" fill="url(#linear-gradient-7)"/>
      <path id="Path_8" data-name="Path 8" d="M617.134,531.495q3.876,0,5.634-1.8a6.639,6.639,0,0,0,1.753-4.843,5.56,5.56,0,0,0-.208-1.494,4.231,4.231,0,0,0-.634-1.332,3.153,3.153,0,0,0-1.05-.925,3.344,3.344,0,0,0-3.6.4,2.655,2.655,0,0,0-.819,2.058,2.138,2.138,0,0,0,.463,1.545,3.428,3.428,0,0,0,1.055.721c.389.176.74.315,1.055.425a.624.624,0,0,1,.463.629q0,1.263-3.742,1.263h-7.613V514.33h-3.742a16.352,16.352,0,0,1-2.993,6.6,19.121,19.121,0,0,1-4.561,4.255,18.156,18.156,0,0,1-4.8,2.266,14.071,14.071,0,0,1-3.645.68v3.367h5.236v34.653a11.4,11.4,0,0,0,.888,4.722,9.5,9.5,0,0,0,2.364,3.275,9.285,9.285,0,0,0,3.367,1.92,12.952,12.952,0,0,0,3.95.606,15.537,15.537,0,0,0,6.059-1.027,12.951,12.951,0,0,0,6.545-5.846q.957-1.776,1.661-3.275l-1.462-.652a9.974,9.974,0,0,1-1.452,2.313,8.129,8.129,0,0,1-1.684,1.591,3.755,3.755,0,0,1-2.243.7,3.432,3.432,0,0,1-2.572-.958,4.937,4.937,0,0,1-.925-3.437V531.495Z" transform="translate(-345.39 -364.978)" fill="url(#linear-gradient-8)"/>
      <path id="Path_9" data-name="Path 9" d="M704.756,585.535a2.354,2.354,0,0,1-1.568.634,1.789,1.789,0,0,1-1.078-.282,1.761,1.761,0,0,1-.56-.7,2.946,2.946,0,0,1-.236-.925c-.028-.342-.046-.657-.046-.925V556.891a12.831,12.831,0,0,0-1.517-6.476,13.141,13.141,0,0,0-4.07-4.4,17.756,17.756,0,0,0-5.87-2.526,30.426,30.426,0,0,0-13.048-.162,19.706,19.706,0,0,0-5.449,1.943,11.669,11.669,0,0,0-3.9,3.339,8.025,8.025,0,0,0-1.508,4.912,6.741,6.741,0,0,0,1.614,4.722,5.454,5.454,0,0,0,4.232,1.776,5.294,5.294,0,0,0,1.9-.347,4.951,4.951,0,0,0,1.591-.985,4.892,4.892,0,0,0,1.073-1.448,4.086,4.086,0,0,0,.4-1.8,3.025,3.025,0,0,0-.726-2.225,5.368,5.368,0,0,0-1.614-1.119c-.592-.264-1.129-.5-1.61-.7a1.036,1.036,0,0,1-.726-1,2.068,2.068,0,0,1,.56-1.29,5.509,5.509,0,0,1,1.545-1.235,10.1,10.1,0,0,1,2.313-.925,11.257,11.257,0,0,1,2.951-.37,7.089,7.089,0,0,1,7.586,7.627,8.619,8.619,0,0,1-1.193,4.366,7.628,7.628,0,0,1-3.955,3.205q-3.649,1.452-7.132,2.775a30.039,30.039,0,0,0-6.221,3.159,15.068,15.068,0,0,0-4.417,4.556,13,13,0,0,0-1.684,6.97,15.537,15.537,0,0,0,1,5.939,10.806,10.806,0,0,0,2.669,3.95,10.287,10.287,0,0,0,3.765,2.225,13.649,13.649,0,0,0,4.348.7,16.287,16.287,0,0,0,3.437-.375,14.856,14.856,0,0,0,3.39-1.216,16.938,16.938,0,0,0,3.3-2.2,19.9,19.9,0,0,0,3.108-3.367,8.515,8.515,0,0,0,2.992,5.4,8.394,8.394,0,0,0,5.241,1.758,12.068,12.068,0,0,0,4.255-.7,13.442,13.442,0,0,0,5.657-3.927q.985-1.17,1.683-2.156l-1.166-.981A12.493,12.493,0,0,1,704.756,585.535Zm-17.891-7.081a6.76,6.76,0,0,1-.463,2.433,8.07,8.07,0,0,1-1.263,2.2,6.844,6.844,0,0,1-1.85,1.614,4.482,4.482,0,0,1-2.313.634,4.361,4.361,0,0,1-1.85-.421,3.908,3.908,0,0,1-1.568-1.475,8.829,8.829,0,0,1-1.078-2.831,21.145,21.145,0,0,1-.4-4.487,16.87,16.87,0,0,1,.657-4.935,11.133,11.133,0,0,1,1.776-3.58,7.76,7.76,0,0,1,2.595-2.2,6.791,6.791,0,0,1,3.113-.749,2.951,2.951,0,0,1,1.915.611,2.161,2.161,0,0,1,.749,1.776Z" transform="translate(-384.21 -380.225)" fill="url(#linear-gradient-9)"/>
      <path id="Path_10" data-name="Path 10" d="M793.254,542.741a6.425,6.425,0,0,0-2.243.416,10.793,10.793,0,0,0-2.174,1.124,17.582,17.582,0,0,0-2.035,1.591,25.043,25.043,0,0,0-1.822,1.823,38.5,38.5,0,0,0-3.788,4.912c0-.463,0-1.036-.046-1.707a11.718,11.718,0,0,0-.305-2.1,10.637,10.637,0,0,0-.772-2.174,6.62,6.62,0,0,0-1.424-1.943,6.825,6.825,0,0,0-2.34-1.388,9.716,9.716,0,0,0-3.437-.537,16.377,16.377,0,0,0-3.742.416,21.168,21.168,0,0,0-3.321,1.078,18.676,18.676,0,0,0-2.877,1.522,25.528,25.528,0,0,0-2.405,1.753l.981,1.17a6.84,6.84,0,0,1,1.216-.8,2.978,2.978,0,0,1,1.355-.282,2.313,2.313,0,0,1,2.128,1,4.36,4.36,0,0,1,.634,2.364v36.091a6.525,6.525,0,0,0,.185,1.355,3.542,3.542,0,0,0,.925,1.637,6.181,6.181,0,0,0,2.179,1.388,10.551,10.551,0,0,0,3.9.587,11.339,11.339,0,0,0,3.9-.541,5.743,5.743,0,0,0,2.151-1.286,3.3,3.3,0,0,0,.925-1.591,6.8,6.8,0,0,0,.19-1.448V556.815q.981-.837,2.174-1.776a23.611,23.611,0,0,1,2.525-1.73,17.612,17.612,0,0,1,2.738-1.337,7.938,7.938,0,0,1,2.849-.537,4.245,4.245,0,0,1,2.993.958,4.307,4.307,0,0,1,1.309,2.41H797.1a22.91,22.91,0,0,0,1-3.58,17.752,17.752,0,0,0,.259-3.062,5.565,5.565,0,0,0-1.36-4A4.9,4.9,0,0,0,793.254,542.741Z" transform="translate(-436.958 -380.243)" fill="url(#linear-gradient-10)"/>
      <path id="Path_11" data-name="Path 11" d="M872.234,531.495q3.876,0,5.634-1.8a6.639,6.639,0,0,0,1.753-4.843,5.555,5.555,0,0,0-.208-1.494,4.228,4.228,0,0,0-.634-1.332,3.151,3.151,0,0,0-1.05-.925,3.343,3.343,0,0,0-3.6.4,2.654,2.654,0,0,0-.819,2.058,2.138,2.138,0,0,0,.463,1.545,3.423,3.423,0,0,0,1.054.721c.389.176.74.315,1.055.425a.625.625,0,0,1,.463.629q0,1.263-3.742,1.263h-7.613V514.33h-3.742a16.289,16.289,0,0,1-2.992,6.6,19.121,19.121,0,0,1-4.561,4.255,18.156,18.156,0,0,1-4.8,2.266,14.073,14.073,0,0,1-3.645.68v3.367h5.236v34.653a11.4,11.4,0,0,0,.888,4.722,9.561,9.561,0,0,0,2.363,3.275,9.285,9.285,0,0,0,3.367,1.919,12.954,12.954,0,0,0,3.95.606,15.537,15.537,0,0,0,6.059-1.027,12.95,12.95,0,0,0,6.545-5.846q.957-1.776,1.661-3.275l-1.448-.652a9.964,9.964,0,0,1-1.452,2.313,8.122,8.122,0,0,1-1.683,1.591,3.754,3.754,0,0,1-2.243.7,3.432,3.432,0,0,1-2.572-.957,4.938,4.938,0,0,1-.925-3.437V531.495Z" transform="translate(-482.498 -364.978)" fill="url(#linear-gradient-8)"/>
      <path id="Path_12" data-name="Path 12" d="M806.054,693.586a10.673,10.673,0,0,1,.606,2.008,16.465,16.465,0,0,1,.291,2.178,10.1,10.1,0,0,1-1.623.5,15.431,15.431,0,0,1-1.679.273c-.541.06-1.05.1-1.522.125s-.846.032-1.124.032a12.721,12.721,0,0,1-4.408-.694,8.485,8.485,0,0,1-3.15-1.952,7.94,7.94,0,0,1-1.883-3.011,11.478,11.478,0,0,1-.624-3.89,19.312,19.312,0,0,1,1-6.295,16.188,16.188,0,0,1,2.817-5.134,13.171,13.171,0,0,1,4.375-3.46A12.657,12.657,0,0,1,804.81,673a19.781,19.781,0,0,1,2.886.19,9.784,9.784,0,0,1,2.613.814,14.561,14.561,0,0,1-.536,2.007,16.156,16.156,0,0,1-.925,2.04,10.129,10.129,0,0,0-2.058-.588,10.866,10.866,0,0,0-1.679-.139,7.571,7.571,0,0,0-3.978,1,8.425,8.425,0,0,0-2.715,2.613,11.78,11.78,0,0,0-1.559,3.649,17.251,17.251,0,0,0-.5,4.117,5.53,5.53,0,0,0,1.471,4.218,5.916,5.916,0,0,0,4.2,1.387,9.251,9.251,0,0,0,.971-.032c.3-.032.6-.06.9-.106a7.581,7.581,0,0,0,.971-.222Z" transform="translate(-453.307 -450.256)" fill="url(#linear-gradient-12)"/>
      <path id="Path_13" data-name="Path 13" d="M835.517,679.474c.25-1.221.43-2.29.532-3.2a20.347,20.347,0,0,0,.157-2.313v-.643a5.3,5.3,0,0,0-.051-.569,13.413,13.413,0,0,1,1.35-.157c.5-.032.925-.051,1.314-.051a13.118,13.118,0,0,1,2.211.208,4.189,4.189,0,0,1,.176,1.313,11.429,11.429,0,0,1-.139,1.661q-.139.925-.347,2.04l-2.664,13.9a5.766,5.766,0,0,0-.1.971,1.924,1.924,0,0,0,.157.865,1.286,1.286,0,0,0,.4.462,1.245,1.245,0,0,0,.55.227,4.07,4.07,0,0,0,.625.051q.26-.013.518-.051a3.517,3.517,0,0,0,.689-.157,12.211,12.211,0,0,1,.3,1.281,7.991,7.991,0,0,1,.12,1.42v.518a4.346,4.346,0,0,1-.051.518,6.235,6.235,0,0,1-1.346.328,13.136,13.136,0,0,1-1.85.12,5.539,5.539,0,0,1-3.7-1.156,4.475,4.475,0,0,1-1.351-3.649,8.018,8.018,0,0,1,.074-1.022c.042-.356.1-.731.171-1.124Z" transform="translate(-475.919 -450.01)" fill="url(#linear-gradient-13)"/>
      <path id="Path_14" data-name="Path 14" d="M859.77,688.758c.439-.069.869-.12,1.3-.157s.833-.051,1.226-.051a14.033,14.033,0,0,1,2.4.208l-1.938,10.967a7,7,0,0,0-.134,1.314,1.92,1.92,0,0,0,.463,1.452,1.8,1.8,0,0,0,1.277.416,2.971,2.971,0,0,0,1.092-.245,3.168,3.168,0,0,0,1.226-1.017,9.44,9.44,0,0,0,1.212-2.179,18.124,18.124,0,0,0,1-3.756l1.281-6.938a16.6,16.6,0,0,1,2.526-.208,14.108,14.108,0,0,1,2.386.208l-1.85,10.2q-.379,2.179-.573,3.858a25.184,25.184,0,0,0-.19,2.613v.638a5.245,5.245,0,0,0,.037.569,12.737,12.737,0,0,1-2.285.208,12.37,12.37,0,0,1-2.141-.208c-.046-.185-.093-.4-.139-.657a6.893,6.893,0,0,1-.069-1.142v-.62a5.534,5.534,0,0,1,.088-.763,7.239,7.239,0,0,1-1.036,1.388A6.847,6.847,0,0,1,865.51,706a7.393,7.393,0,0,1-1.711.763,6.5,6.5,0,0,1-1.85.278,3.941,3.941,0,0,1-4.4-4.57,9.536,9.536,0,0,1,.069-1.106c.047-.393.106-.8.176-1.244Z" transform="translate(-489.109 -458.615)" fill="url(#linear-gradient-14)"/>
      <path id="Path_15" data-name="Path 15" d="M902.943,679.489a35.908,35.908,0,0,0,.6-5.5v-.643a5.263,5.263,0,0,0-.051-.569,13.464,13.464,0,0,1,1.351-.157c.509-.032.925-.051,1.314-.051a13.191,13.191,0,0,1,2.216.208,4.361,4.361,0,0,1,.171,1.314,20.2,20.2,0,0,1-.416,3.7l-.883,4.81a11.685,11.685,0,0,1,.925-1.022,6.643,6.643,0,0,1,1.156-.925,5.7,5.7,0,0,1,1.522-.657,7.453,7.453,0,0,1,2.007-.245,4.446,4.446,0,0,1,3.7,1.661,7.745,7.745,0,0,1,1.295,4.81,15.828,15.828,0,0,1-.62,4.325,10.681,10.681,0,0,1-2.1,3.941,10.853,10.853,0,0,1-3.89,2.872,16.067,16.067,0,0,1-11.536.069Zm2.28,14.7a3.012,3.012,0,0,0,.712.153,6.834,6.834,0,0,0,.879.051,4.662,4.662,0,0,0,2.613-.708,6.118,6.118,0,0,0,1.8-1.8,7.965,7.965,0,0,0,1.036-2.4,10.647,10.647,0,0,0,.328-2.562,4.16,4.16,0,0,0-.5-2.091,1.818,1.818,0,0,0-1.716-.884,3.469,3.469,0,0,0-2.729,1.351,9.3,9.3,0,0,0-1.661,4.463Z" transform="translate(-511.768 -450.026)" fill="url(#linear-gradient-15)"/>
      <path id="Path_16" data-name="Path 16" d="M238.836,244.133a25.219,25.219,0,0,0-7.4-10.236c-4.163-3.265-9.445-4.787-14.426-6.235-3.784-1.105-8.612-1.531-10.819-5.3a12.28,12.28,0,0,1-1.489-4.8s-8.932,4.32-11.425,11.031c-.176.486-2.16,5.55-.319,10.116.925,2.313,1.147,2.47,3.733,6.327,2.438,3.649,3.668,5.472,3.506,7.581-.291,3.617-3.381,6.17-3.464,7.618s1.281,2.627,2.438,3.289c1.388.8,2.461-.194,3.238.56a4.5,4.5,0,0,1,.661,4.561c-.509,1.105,1.85,1.674,2.914,1.7,1.873,0,3.27-1.23,3.464-1.036s-1.526.925-1.785,3.071c0,.236-.241,2.077.7,2.775s1.91-.462,3.182.125c.925.421,1.346,1.485,2.017,3.316.925,2.5.786,2.313,1.48,3.238,1.115,1.489,2.914,1.314,4.454,1.064,5.18-.828,7.507-7.021,9.052-6.475.981.361,1.138,5.277.925,8.256a37.974,37.974,0,0,1-4.5,14.413c7.4-2.882,14.107-7.687,16.721-16.707C244.96,268.144,242.587,253.153,238.836,244.133Z" transform="translate(-131.495 -205.479)" fill="#fff"/>
      <path id="Path_17" data-name="Path 17" d="M143.966,314.807A.749.749,0,0,0,143,315a24.146,24.146,0,0,1-2.65,2.775c-.236.194-.495,0-.384-.282.675-1.85,1.277-3.649,1.735-5.315a.819.819,0,0,0-1.545-.527c-.634,1.517-2.2,4.625-2.2,4.625-.065.111-.185.06-.139-.074a55.533,55.533,0,0,1,2.313-5.463.922.922,0,0,0-1.6-.911q-1.707,2.585-3.173,5.287c-.083.157-.264.065-.241-.088a49.861,49.861,0,0,1,1.281-5.25.925.925,0,0,0-1.711-.675,54.941,54.941,0,0,0-2.336,5.934c-.134.338-.264.661-.384.981-.12-.439-.245-.86-.375-1.249a1.679,1.679,0,0,0-1.91-1.133.375.375,0,0,0-.273.49,10.925,10.925,0,0,1,.439,5.439,2.5,2.5,0,0,0,.37,1.549.369.369,0,0,0,.069.079,11.1,11.1,0,0,0-1.522,2.775,23.752,23.752,0,0,1-4.8,6.286,40.018,40.018,0,0,0-9-8.326,8.787,8.787,0,0,1-.953-.925,3.183,3.183,0,0,1-.652-1.064,1.387,1.387,0,0,1-.069-.5,1.2,1.2,0,0,1,.032-.2c.227-.856,1.42-1.064,2.932-1.323,1.938-.328,4.4-.745,5.981-2.711a6.668,6.668,0,0,0,1.628-3.968h0a3.378,3.378,0,0,0-.046-.523c-.13-.657-.208-.532.171-1.365a1.358,1.358,0,0,0-.347-1.822c-.569-.666-2.387-.643-2.549-.953s2.169-.652,2.225-1.929c.032-.7-.953-.254-1.281-1.249-.569-1.721,1.092-2.253,0-3.511-.9-1.031-1.512-.171-2.678-.56h0a3.122,3.122,0,0,1-2.086-2.428,24.644,24.644,0,0,1-.342-3.053s-.153-4.685-2.8-7.761c-4.394-5.088-13.048-5.018-20.245-2.313h0l-.4.143C84.378,287.328,79.91,297.9,83.518,307.5A18.917,18.917,0,0,0,95.2,318.9h.037c.328.111.657.208.985.3l.278.069c.259.065.518.129.782.18.37.079.745.139,1.115.19a4.588,4.588,0,0,1,2.567,1.23,4.662,4.662,0,0,1,1.388,2.493,12.136,12.136,0,0,1,.046,3.414c-.125,1.258-.342,2.539-.5,3.7a16.118,16.118,0,0,0-.19,2.058,35.4,35.4,0,0,0,6.966,8.326,35.775,35.775,0,0,0,3.964,3.076q1.105.745,2.313,1.425t2.553,1.286a31.62,31.62,0,0,0,12.535,2.775c.037-.574.055-1.152.06-1.734a28.22,28.22,0,0,0-.208-3.515,26.278,26.278,0,0,0-.509-2.8c3.261-4.792,6.739-11.1,8.326-16.429h0a.207.207,0,0,0,.1-.037,11.765,11.765,0,0,0,3.959-5.694,34.64,34.64,0,0,0,2.461-3.423A.736.736,0,0,0,143.966,314.807Z" transform="translate(-72.421 -240.075)" fill="#fff"/>
    </g>
  </g>
</svg>
