<svg id="appstore" xmlns="http://www.w3.org/2000/svg" width="800.841" height="237.286" viewBox="0 0 800.841 237.286">
  <path id="Path_12" data-name="Path 12" d="M772.349,237.286H28.053A28.117,28.117,0,0,1,0,209.209V28.035A28.078,28.078,0,0,1,28.053,0h744.3c15.459,0,28.492,12.576,28.492,28.035V209.209c0,15.453-13.033,28.077-28.492,28.077Z" fill="#a6a6a6"/>
  <path id="Path_13" data-name="Path 13" d="M790.709,204.826a22.72,22.72,0,0,1-22.744,22.72H23.664A22.749,22.749,0,0,1,.89,204.826V23.64A22.778,22.778,0,0,1,23.664.89h744.3A22.745,22.745,0,0,1,790.7,23.64l.006,181.186Z" transform="translate(4.39 4.39)"/>
  <g id="Group_2" data-name="Group 2" transform="translate(75.884 36.88)">
    <g id="Group_1" data-name="Group 1">
      <path id="Path_14" data-name="Path 14" d="M115.632,56.347c-.172-19.119,15.655-28.421,16.379-28.854-8.963-13.069-22.857-14.854-27.739-15C92.6,11.268,81.285,19.478,75.341,19.478c-6.063,0-15.216-6.864-25.081-6.662-12.695.2-24.571,7.546-31.084,18.959-13.442,23.272-3.417,57.471,9.462,76.282,6.442,9.213,13.97,19.5,23.824,19.137,9.64-.4,13.241-6.146,24.874-6.146,11.526,0,14.908,6.146,24.957,5.914,10.346-.166,16.859-9.254,23.076-18.55A76.123,76.123,0,0,0,135.92,86.921C135.677,86.838,115.828,79.262,115.632,56.347Z" transform="translate(-12.792 24.135)" fill="#fff"/>
      <path id="Path_15" data-name="Path 15" d="M45.777,30.474c5.185-6.484,8.732-15.3,7.747-24.257-7.5.332-16.889,5.191-22.293,11.532C26.45,23.337,22.179,32.5,23.282,41.11,31.712,41.739,40.367,36.857,45.777,30.474Z" transform="translate(38.081 -6.217)" fill="#fff"/>
    </g>
  </g>
  <g id="Group_3" data-name="Group 3" transform="translate(251.583 106.785)">
    <path id="Path_16" data-name="Path 16" d="M109.058,97.141H95.586l-7.38-23.189H62.556l-7.03,23.189H42.41L67.823,18.2h15.7ZM85.982,64.224,79.308,43.609q-1.059-3.159-3.98-14.872H75.09q-1.166,5.036-3.749,14.872L64.786,64.224Z" transform="translate(-42.41 -17.039)" fill="#fff"/>
    <path id="Path_17" data-name="Path 17" d="M110.24,50.642q0,14.522-7.848,22.951a22.948,22.948,0,0,1-17.452,7.5q-11.247,0-16.165-8.08h-.237V103H55.89V41.619q0-9.13-.469-18.74H66.544L67.25,31.9h.237q6.327-10.2,19.208-10.191A21.113,21.113,0,0,1,103.5,29.672Q110.246,37.645,110.24,50.642ZM97.355,51.1q0-8.311-3.749-13.7A12.949,12.949,0,0,0,82.6,31.778a13.152,13.152,0,0,0-8.489,3.1,14.39,14.39,0,0,0-4.977,8.145,16.558,16.558,0,0,0-.587,3.856v9.491a15.209,15.209,0,0,0,3.808,10.488,12.623,12.623,0,0,0,9.895,4.277,12.948,12.948,0,0,0,11.123-5.505Q97.355,60.125,97.355,51.1Z" transform="translate(21.762 0.297)" fill="#fff"/>
    <path id="Path_18" data-name="Path 18" d="M121.272,50.642q0,14.522-7.854,22.951a22.926,22.926,0,0,1-17.446,7.5q-11.247,0-16.159-8.08h-.237V103H66.928V41.619q0-9.13-.469-18.74H77.582l.706,9.023h.237q6.318-10.2,19.208-10.191a21.15,21.15,0,0,1,16.812,7.961Q121.263,37.645,121.272,50.642Zm-12.885.463q0-8.311-3.755-13.7a12.931,12.931,0,0,0-11-5.624,13.168,13.168,0,0,0-8.495,3.1,14.382,14.382,0,0,0-4.971,8.145,16.884,16.884,0,0,0-.587,3.856v9.491a15.256,15.256,0,0,0,3.8,10.488,12.65,12.65,0,0,0,9.907,4.277A12.948,12.948,0,0,0,104.4,65.633Q108.387,60.125,108.387,51.1Z" transform="translate(76.203 0.297)" fill="#fff"/>
    <path id="Path_19" data-name="Path 19" d="M128.759,75.964q0,10.073-7.012,16.4-7.715,6.914-21.5,6.911-12.742,0-20.46-4.918l2.931-10.541A34.669,34.669,0,0,0,101,88.855q7.145,0,11.135-3.227A10.538,10.538,0,0,0,116.106,77a11,11,0,0,0-3.28-8.091q-3.266-3.283-10.891-6.1Q81.2,55.074,81.207,40.169a20.031,20.031,0,0,1,7.267-15.952Q95.717,18,107.8,18q10.776,0,17.915,3.749l-3.162,10.31a31.084,31.084,0,0,0-15.109-3.63q-6.674,0-10.417,3.28a9.373,9.373,0,0,0-3.162,7.148,9.649,9.649,0,0,0,3.625,7.73q3.159,2.812,11.485,6.092,10.188,4.1,14.991,9.6A20.053,20.053,0,0,1,128.759,75.964Z" transform="translate(141.919 -18.001)" fill="#fff"/>
    <path id="Path_20" data-name="Path 20" d="M123.911,43.192H109.971V70.83q0,10.544,7.38,10.541a22.494,22.494,0,0,0,5.618-.587l.35,9.6a28.655,28.655,0,0,1-9.835,1.4q-7.492,0-11.716-4.568T97.549,71.874V43.18h-8.3V33.689h8.3V23.266l12.422-3.749V33.689h13.941v9.5Z" transform="translate(188.583 -10.524)" fill="#fff"/>
    <path id="Path_21" data-name="Path 21" d="M152.048,50.869q0,13.125-7.5,21.552-7.857,8.676-20.857,8.667-12.529,0-19.962-8.311T96.292,51.812q0-13.232,7.67-21.664t20.668-8.436q12.529,0,20.146,8.317Q152.054,38.1,152.048,50.869Zm-13.122.409a25.6,25.6,0,0,0-3.393-13.508q-3.978-6.816-11.354-6.81a12.682,12.682,0,0,0-11.6,6.81,26.1,26.1,0,0,0-3.393,13.745,25.569,25.569,0,0,0,3.393,13.5q4.1,6.816,11.485,6.81,7.243,0,11.354-6.929A25.7,25.7,0,0,0,138.926,51.278Z" transform="translate(223.344 0.302)" fill="#fff"/>
    <path id="Path_22" data-name="Path 22" d="M137.943,34a21.961,21.961,0,0,0-3.986-.35,11.95,11.95,0,0,0-10.31,5.042,18.952,18.952,0,0,0-3.162,11.241V79.8H107.843l.119-39q0-9.841-.475-17.921H118.5l.463,10.891h.35a19.467,19.467,0,0,1,6.324-9.017,15.292,15.292,0,0,1,9.141-3.049,20.306,20.306,0,0,1,3.162.231Z" transform="translate(278.56 0.297)" fill="#fff"/>
    <path id="Path_23" data-name="Path 23" d="M164.217,48.738a29.66,29.66,0,0,1-.463,5.736H125.813q.222,8.436,5.505,12.891,4.8,3.978,12.41,3.98a41.964,41.964,0,0,0,15.352-2.693l1.981,8.78a47.464,47.464,0,0,1-19.084,3.518q-13.241,0-20.8-7.789t-7.552-20.9q0-12.876,7.035-21.433,7.368-9.13,19.9-9.13,12.306,0,18.633,9.13Q164.209,38.075,164.217,48.738Zm-12.06-3.28a17.182,17.182,0,0,0-2.456-9.723q-3.284-5.277-10.079-5.274a12,12,0,0,0-10.067,5.155,18.873,18.873,0,0,0-3.743,9.836h26.345Z" transform="translate(308.848 0.209)" fill="#fff"/>
  </g>
  <g id="Group_5" data-name="Group 5" transform="translate(259.093 38.891)">
    <g id="Group_4" data-name="Group 4">
      <path id="Path_24" data-name="Path 24" d="M75.555,25.609q0,10.473-6.276,15.768-5.811,4.885-16.509,4.888a76.544,76.544,0,0,1-9.094-.463V7.653a67.108,67.108,0,0,1,10.708-.807q10.188,0,15.364,4.431Q75.549,16.287,75.555,25.609ZM69,25.781q0-6.789-3.595-10.417T54.9,11.74a26.311,26.311,0,0,0-5.007.4v29a32.823,32.823,0,0,0,4.2.172q7.136,0,11.016-3.969T69,25.781Z" transform="translate(-43.676 -5.126)" fill="#fff"/>
      <path id="Path_25" data-name="Path 25" d="M77.681,22.943A15.338,15.338,0,0,1,74,33.532a13.148,13.148,0,0,1-10.245,4.259A12.5,12.5,0,0,1,53.94,33.7a14.886,14.886,0,0,1-3.648-10.3,15.189,15.189,0,0,1,3.767-10.642A13.065,13.065,0,0,1,64.215,8.623a12.789,12.789,0,0,1,9.9,4.081A14.765,14.765,0,0,1,77.681,22.943Zm-6.448.2a12.648,12.648,0,0,0-1.667-6.638,6.139,6.139,0,0,0-5.576-3.346,6.236,6.236,0,0,0-5.7,3.346,12.817,12.817,0,0,0-1.667,6.751A12.648,12.648,0,0,0,58.289,29.9a6.274,6.274,0,0,0,5.641,3.346,6.2,6.2,0,0,0,5.576-3.405A12.568,12.568,0,0,0,71.232,23.145Z" transform="translate(-11.045 3.639)" fill="#fff"/>
      <path id="Path_26" data-name="Path 26" d="M96.452,8.719,87.7,36.683H82.007L78.382,24.54a90.891,90.891,0,0,1-2.248-9.035h-.113a66.14,66.14,0,0,1-2.248,9.035l-3.85,12.143h-5.76L55.935,8.719h6.389l3.162,13.294q1.148,4.716,1.9,8.975H67.5q.694-3.506,2.308-8.916L73.773,8.725h5.066l3.8,13.063q1.379,4.778,2.242,9.207h.172a87.964,87.964,0,0,1,1.9-9.207L90.347,8.725h6.1Z" transform="translate(16.787 4.112)" fill="#fff"/>
      <path id="Path_27" data-name="Path 27" d="M88.578,37.171H82.361V21.155q0-7.4-5.636-7.4a5.61,5.61,0,0,0-4.491,2.035,7.22,7.22,0,0,0-1.726,4.793V37.166H64.291V17.2q0-3.684-.225-8H69.53l.291,4.372h.172a8.982,8.982,0,0,1,3.221-3.375A10.507,10.507,0,0,1,78.849,8.62a8.924,8.924,0,0,1,6.508,2.533q3.221,3.105,3.221,9.266Z" transform="translate(56.891 3.624)" fill="#fff"/>
      <path id="Path_28" data-name="Path 28" d="M76.252,47.351H70.041V6.556h6.211Z" transform="translate(86.36 -6.556)" fill="#fff"/>
      <path id="Path_29" data-name="Path 29" d="M100.03,22.943a15.338,15.338,0,0,1-3.684,10.589A13.157,13.157,0,0,1,86.1,37.791,12.48,12.48,0,0,1,76.289,33.7a14.886,14.886,0,0,1-3.648-10.3,15.189,15.189,0,0,1,3.767-10.642,13.061,13.061,0,0,1,10.15-4.141A12.8,12.8,0,0,1,96.465,12.7,14.765,14.765,0,0,1,100.03,22.943Zm-6.454.2a12.648,12.648,0,0,0-1.667-6.638,6.131,6.131,0,0,0-5.57-3.346,6.224,6.224,0,0,0-5.7,3.346,12.817,12.817,0,0,0-1.667,6.751A12.648,12.648,0,0,0,80.637,29.9a6.274,6.274,0,0,0,5.641,3.346,6.2,6.2,0,0,0,5.57-3.405A12.514,12.514,0,0,0,93.576,23.145Z" transform="translate(99.184 3.639)" fill="#fff"/>
      <path id="Path_30" data-name="Path 30" d="M101.417,37.157H95.835l-.463-3.221H95.2a9.574,9.574,0,0,1-8.169,3.856,8.43,8.43,0,0,1-6.383-2.533,7.942,7.942,0,0,1-2.189-5.695,8.688,8.688,0,0,1,4.289-7.825q4.289-2.705,12.06-2.646v-.522q0-5.526-5.808-5.523a13.006,13.006,0,0,0-7.291,2.07l-1.264-4.081A17.933,17.933,0,0,1,90.04,8.623q10.963,0,10.974,11.568v10.3A43.677,43.677,0,0,0,101.417,37.157Zm-6.454-9.61V23.234q-10.286-.178-10.286,5.636a4.212,4.212,0,0,0,1.192,3.28,4.349,4.349,0,0,0,3.037,1.092,6.279,6.279,0,0,0,3.8-1.293,5.308,5.308,0,0,0,2.254-4.4Z" transform="translate(127.884 3.639)" fill="#fff"/>
      <path id="Path_31" data-name="Path 31" d="M110.48,47.351h-5.517l-.291-4.491H104.5c-1.762,3.417-4.764,5.125-8.981,5.125a10.525,10.525,0,0,1-8.4-3.969,15.461,15.461,0,0,1-3.334-10.3q0-6.789,3.625-10.992a11.144,11.144,0,0,1,8.631-3.915q5.633,0,7.878,3.8h.119V6.556h6.223V39.818Q110.26,43.9,110.48,47.351Zm-6.442-11.793V30.9a9.149,9.149,0,0,0-.172-1.958,7.08,7.08,0,0,0-2.248-3.767,6.11,6.11,0,0,0-4.158-1.525,6.38,6.38,0,0,0-5.469,2.764A11.847,11.847,0,0,0,90,33.488a11.044,11.044,0,0,0,1.91,6.733,6.4,6.4,0,0,0,5.434,2.758,5.99,5.99,0,0,0,4.912-2.3A7.663,7.663,0,0,0,104.037,35.558Z" transform="translate(154.148 -6.556)" fill="#fff"/>
      <path id="Path_32" data-name="Path 32" d="M120.02,22.943a15.338,15.338,0,0,1-3.684,10.589,13.14,13.14,0,0,1-10.245,4.259A12.514,12.514,0,0,1,96.279,33.7a14.886,14.886,0,0,1-3.648-10.3A15.189,15.189,0,0,1,96.4,12.764,13.069,13.069,0,0,1,106.56,8.623a12.776,12.776,0,0,1,9.895,4.081A14.765,14.765,0,0,1,120.02,22.943Zm-6.442.2a12.648,12.648,0,0,0-1.667-6.638,6.148,6.148,0,0,0-5.582-3.346,6.249,6.249,0,0,0-5.7,3.346,12.817,12.817,0,0,0-1.667,6.751,12.648,12.648,0,0,0,1.667,6.638,6.353,6.353,0,0,0,11.224-.059A12.622,12.622,0,0,0,113.577,23.145Z" transform="translate(197.778 3.639)" fill="#fff"/>
      <path id="Path_33" data-name="Path 33" d="M123.258,37.171h-6.211V21.155q0-7.4-5.641-7.4a5.59,5.59,0,0,0-4.485,2.035,7.19,7.19,0,0,0-1.726,4.793V37.166H98.971V17.2q0-3.684-.219-8h5.458l.291,4.372h.172a9.074,9.074,0,0,1,3.221-3.375,10.528,10.528,0,0,1,5.641-1.572,8.92,8.92,0,0,1,6.5,2.533q3.23,3.105,3.221,9.266Z" transform="translate(227.967 3.624)" fill="#fff"/>
      <path id="Path_34" data-name="Path 34" d="M124.1,19.166h-6.846V32.751c0,3.453,1.216,5.179,3.625,5.179a10.948,10.948,0,0,0,2.77-.291l.16,4.716a13.968,13.968,0,0,1-4.829.694,7.432,7.432,0,0,1-5.748-2.242q-2.082-2.242-2.076-7.54v-14.1h-4.087V14.509h4.087V9.384l6.092-1.839V14.5h6.846v4.663Z" transform="translate(268.968 -1.678)" fill="#fff"/>
      <path id="Path_35" data-name="Path 35" d="M135.676,47.351h-6.223v-15.9q0-7.519-5.63-7.522c-2.883,0-4.853,1.453-5.932,4.36a7.812,7.812,0,0,0-.291,2.236V47.345H111.39V6.556H117.6V23.409h.119a9.4,9.4,0,0,1,8.4-4.6,8.664,8.664,0,0,1,6.395,2.533q3.159,3.159,3.162,9.379V47.351Z" transform="translate(290.3 -6.556)" fill="#fff"/>
      <path id="Path_36" data-name="Path 36" d="M141.878,21.9a15.014,15.014,0,0,1-.231,2.818H123a8.154,8.154,0,0,0,2.7,6.33A9.261,9.261,0,0,0,131.8,33a20.6,20.6,0,0,0,7.54-1.323L140.317,36a23.413,23.413,0,0,1-9.385,1.726c-4.33,0-7.741-1.275-10.209-3.826s-3.708-5.974-3.708-10.269a16,16,0,0,1,3.452-10.53,11.89,11.89,0,0,1,9.776-4.485c4.022,0,7.077,1.495,9.141,4.485A14.93,14.93,0,0,1,141.878,21.9Zm-5.932-1.608a8.369,8.369,0,0,0-1.2-4.775,5.43,5.43,0,0,0-4.947-2.592,5.9,5.9,0,0,0-4.947,2.533A9.411,9.411,0,0,0,123,20.288h12.944Z" transform="translate(318.048 3.594)" fill="#fff"/>
    </g>
  </g>
</svg>
